<svg xmlns="http://www.w3.org/2000/svg" xmlns:xlink="http://www.w3.org/1999/xlink" viewBox="0,0,255.99609,255.99609" width="512px" height="512px" fill-rule="nonzero"><defs><linearGradient x1="25" y1="24.681" x2="25" y2="35.468" gradientUnits="userSpaceOnUse" id="color-1"><stop offset="0" stop-color="#ffffff" stop-opacity="0"></stop><stop offset="0.699" stop-color="#ffffff" stop-opacity="0"></stop></linearGradient><linearGradient x1="25" y1="2.683" x2="25" y2="15.247" gradientUnits="userSpaceOnUse" id="color-2"><stop offset="0" stop-color="#ffffff" stop-opacity="0"></stop><stop offset="0.699" stop-color="#ffffff" stop-opacity="0"></stop></linearGradient><linearGradient x1="45.5" y1="14.815" x2="45.5" y2="26.122" gradientUnits="userSpaceOnUse" id="color-3"><stop offset="0" stop-color="#ffffff" stop-opacity="0"></stop><stop offset="0.699" stop-color="#ffffff" stop-opacity="0"></stop></linearGradient><linearGradient x1="45.5" y1="38.414" x2="45.5" y2="49.233" gradientUnits="userSpaceOnUse" id="color-4"><stop offset="0" stop-color="#ffffff" stop-opacity="0"></stop><stop offset="0.699" stop-color="#ffffff" stop-opacity="0"></stop></linearGradient><linearGradient x1="25" y1="48.976" x2="25" y2="58.584" gradientUnits="userSpaceOnUse" id="color-5"><stop offset="0" stop-color="#ffffff" stop-opacity="0"></stop><stop offset="0.699" stop-color="#ffffff" stop-opacity="0"></stop></linearGradient><linearGradient x1="34.503" y1="0" x2="34.503" y2="64" gradientUnits="userSpaceOnUse" id="color-6"><stop offset="0" stop-color="#ffffff"></stop><stop offset="1" stop-color="#ffffff"></stop></linearGradient></defs><g fill="none" fill-rule="nonzero" stroke="none" stroke-width="1" stroke-linecap="butt" stroke-linejoin="miter" stroke-miterlimit="10" stroke-dasharray="" stroke-dashoffset="0" font-family="none" font-weight="none" font-size="none" text-anchor="none" style="mix-blend-mode: normal"><g transform="scale(4,4)"><circle cx="25" cy="32" r="6" fill="url(#color-1)"></circle><circle cx="25" cy="9" r="5" fill="url(#color-2)"></circle><path d="M49.4,18.25c0.6,1.04 0.76,2.25 0.45,3.41c-0.31,1.17 -1.06,2.14 -2.1,2.74c-0.69,0.39 -1.46,0.6 -2.24,0.6c-0.39,0 -0.79,-0.05 -1.17,-0.15c-1.17,-0.31 -2.14,-1.06 -2.74,-2.1c-0.6,-1.04 -0.76,-2.25 -0.45,-3.41c0.31,-1.17 1.06,-2.14 2.1,-2.74c0.69,-0.39 1.46,-0.6 2.24,-0.6c0.39,0 0.79,0.05 1.17,0.15c1.17,0.31 2.14,1.06 2.74,2.1z" fill="url(#color-3)"></path><path d="M49.85,42.34c0.31,1.16 0.15,2.37 -0.45,3.41c-0.6,1.04 -1.57,1.79 -2.73,2.1c-0.39,0.1 -0.79,0.15 -1.18,0.15c-0.78,0 -1.55,-0.21 -2.24,-0.6c-1.04,-0.6 -1.79,-1.57 -2.1,-2.74c-0.31,-1.16 -0.15,-2.37 0.45,-3.41c0.6,-1.04 1.57,-1.79 2.73,-2.1c0.39,-0.1 0.79,-0.15 1.18,-0.15c0.78,0 1.55,0.21 2.24,0.6c1.04,0.6 1.79,1.57 2.1,2.74z" fill="url(#color-4)"></path><circle cx="25" cy="55" r="5" fill="url(#color-5)"></circle><path d="M49.75,36.14c-1.31,-0.76 -2.76,-1.14 -4.24,-1.14c-0.74,0 -1.48,0.09 -2.21,0.29c-1.94,0.52 -3.6,1.68 -4.74,3.31l-4.43,-2.54c0.55,-1.24 0.87,-2.61 0.87,-4.06c0,-1.45 -0.32,-2.82 -0.87,-4.06l4.43,-2.54c1.14,1.63 2.8,2.79 4.74,3.31c0.73,0.2 1.48,0.29 2.21,0.29c1.48,0 2.93,-0.38 4.24,-1.14c1.97,-1.13 3.37,-2.97 3.96,-5.16c0.59,-2.19 0.29,-4.48 -0.85,-6.45c-1.13,-1.97 -2.97,-3.37 -5.16,-3.96c-0.73,-0.2 -1.47,-0.29 -2.21,-0.29c-1.48,0 -2.93,0.38 -4.24,1.14c-1.97,1.13 -3.37,2.97 -3.96,5.16c-0.48,1.79 -0.36,3.65 0.32,5.34l-4.48,2.56c-1.63,-2.28 -4.19,-3.86 -7.13,-4.15v-4.11c4.49,-0.5 8,-4.32 8,-8.94c0,-4.96 -4.04,-9 -9,-9c-4.96,0 -9,4.04 -9,9c0,4.62 3.51,8.44 8,8.94v4.11c-5.05,0.5 -9,4.77 -9,9.95c0,5.18 3.95,9.45 9,9.95v4.11c-4.49,0.5 -8,4.32 -8,8.94c0,4.96 4.04,9 9,9c4.96,0 9,-4.04 9,-9c0,-4.62 -3.51,-8.44 -8,-8.94v-4.11c2.94,-0.29 5.5,-1.87 7.13,-4.15l4.48,2.56c-0.68,1.69 -0.8,3.55 -0.32,5.34c0.59,2.19 1.99,4.03 3.96,5.16c1.31,0.76 2.76,1.14 4.24,1.14c0.73,0 1.48,-0.09 2.21,-0.29c2.19,-0.59 4.03,-1.99 5.16,-3.96c1.14,-1.97 1.44,-4.26 0.85,-6.45c-0.59,-2.19 -1.99,-4.03 -3.96,-5.16zM39.22,18.82c0.45,-1.68 1.53,-3.08 3.03,-3.95c1,-0.58 2.11,-0.87 3.24,-0.87c0.56,0 1.13,0.07 1.69,0.22c1.68,0.45 3.08,1.53 3.95,3.03c0.87,1.5 1.1,3.25 0.65,4.93c-0.45,1.68 -1.53,3.08 -3.03,3.95c-1,0.58 -2.11,0.87 -3.24,0.87c-0.56,0 -1.13,-0.07 -1.69,-0.22c-1.68,-0.45 -3.08,-1.53 -3.95,-3.03c-0.87,-1.5 -1.1,-3.25 -0.65,-4.93zM25,62c-3.86,0 -7,-3.14 -7,-7c0,-3.86 3.14,-7 7,-7c3.86,0 7,3.14 7,7c0,3.86 -3.14,7 -7,7zM25,40c-4.41,0 -8,-3.59 -8,-8c0,-4.41 3.59,-8 8,-8c4.41,0 8,3.59 8,8c0,4.41 -3.59,8 -8,8zM25,2c3.86,0 7,3.14 7,7c0,3.86 -3.14,7 -7,7c-3.86,0 -7,-3.14 -7,-7c0,-3.86 3.14,-7 7,-7zM47.18,49.78c-0.56,0.15 -1.12,0.22 -1.69,0.22c-1.13,0 -2.24,-0.29 -3.24,-0.87c-1.5,-0.87 -2.58,-2.27 -3.03,-3.95c-0.45,-1.68 -0.22,-3.43 0.65,-4.93c0.87,-1.5 2.27,-2.58 3.95,-3.03c0.56,-0.15 1.13,-0.22 1.69,-0.22c1.13,0 2.24,0.29 3.24,0.87c1.5,0.87 2.58,2.27 3.03,3.95c0.45,1.68 0.22,3.43 -0.65,4.93c-0.87,1.5 -2.27,2.58 -3.95,3.03z" fill="url(#color-6)"></path></g></g></svg>